<?xml version="1.0" standalone="no"?>
<!DOCTYPE svg PUBLIC "-//W3C//DTD SVG 20010904//EN"
 "http://www.w3.org/TR/2001/REC-SVG-20010904/DTD/svg10.dtd">
<svg version="1.0" xmlns="http://www.w3.org/2000/svg"
 width="2089.000000pt" height="2089.000000pt" viewBox="0 0 2089.000000 2089.000000"
 preserveAspectRatio="xMidYMid meet">
<metadata>
Created by potrace 1.11, written by Peter Selinger 2001-2013
</metadata>
<g transform="translate(0.000000,2089.000000) scale(0.100000,-0.100000)"
fill="#000000" stroke="none">
<path d="M10058 20885 c-2 -1 -70 -6 -153 -9 -82 -4 -166 -9 -185 -11 -19 -2
-72 -6 -118 -9 -86 -7 -149 -13 -217 -21 -22 -3 -65 -7 -95 -10 -30 -3 -71 -8
-90 -10 -19 -2 -62 -7 -95 -11 -33 -3 -69 -8 -80 -10 -43 -9 -72 -13 -120 -19
-44 -5 -241 -37 -301 -49 -12 -2 -37 -7 -55 -10 -19 -3 -45 -8 -59 -11 -14 -3
-41 -8 -60 -11 -170 -31 -690 -156 -880 -213 -515 -153 -1040 -347 -1450 -537
-131 -61 -510 -250 -608 -303 -65 -35 -101 -55 -242 -134 -28 -15 -163 -97
-365 -220 -46 -28 -348 -228 -425 -282 -153 -106 -526 -387 -605 -456 -11 -10
-83 -70 -160 -135 -77 -65 -142 -120 -145 -123 -3 -3 -25 -24 -50 -45 -309
-269 -786 -759 -1070 -1103 -298 -359 -667 -869 -845 -1165 -5 -9 -56 -94
-113 -188 -56 -93 -102 -172 -102 -175 0 -3 -13 -26 -29 -52 -156 -256 -469
-918 -622 -1313 -28 -74 -56 -144 -60 -155 -49 -115 -170 -482 -263 -800 -32
-112 -144 -555 -151 -600 -2 -11 -17 -85 -33 -165 -17 -80 -38 -185 -46 -235
-9 -49 -18 -100 -20 -112 -3 -11 -8 -43 -12 -70 -3 -26 -8 -57 -10 -68 -7 -37
-12 -70 -19 -120 -4 -27 -8 -66 -11 -85 -3 -19 -7 -51 -9 -70 -3 -19 -7 -57
-10 -85 -4 -27 -8 -61 -10 -75 -2 -14 -7 -59 -11 -100 -3 -41 -8 -88 -10 -105
-1 -16 -6 -68 -9 -115 -4 -47 -8 -101 -10 -120 -26 -257 -26 -1200 0 -1440 2
-19 6 -80 10 -135 3 -55 8 -111 10 -125 2 -14 7 -52 10 -85 3 -33 7 -78 10
-100 11 -95 16 -142 20 -165 2 -14 9 -68 15 -120 7 -52 14 -104 16 -115 3 -16
22 -126 39 -230 14 -84 49 -272 62 -325 8 -36 17 -76 20 -90 2 -14 9 -45 14
-70 6 -25 13 -54 15 -65 25 -124 106 -434 165 -630 57 -190 152 -478 174 -530
7 -16 18 -48 25 -70 71 -226 399 -980 522 -1200 6 -11 36 -67 66 -125 30 -57
77 -142 104 -189 26 -46 48 -85 48 -87 0 -5 166 -283 230 -384 124 -198 297
-452 459 -670 79 -107 323 -418 376 -478 12 -15 55 -65 95 -112 279 -327 706
-759 1020 -1030 41 -36 77 -68 80 -71 10 -12 361 -296 456 -370 109 -84 344
-255 470 -341 209 -143 652 -418 673 -418 6 0 11 -4 11 -10 0 -5 4 -10 8 -10
4 0 73 -36 152 -81 425 -236 978 -487 1475 -669 288 -105 748 -249 948 -296 9
-2 25 -6 35 -8 9 -2 83 -20 164 -40 151 -36 371 -84 422 -91 15 -3 37 -7 48
-11 11 -3 30 -7 41 -9 12 -2 105 -17 207 -33 244 -40 304 -49 458 -67 23 -3
59 -7 80 -9 20 -3 66 -8 102 -11 36 -3 79 -8 95 -10 17 -2 71 -6 120 -10 50
-3 110 -8 135 -10 307 -26 1147 -26 1429 0 19 1 82 6 140 10 58 4 115 9 125
11 11 2 49 6 85 9 36 3 104 10 151 16 47 5 103 12 125 15 22 2 51 6 65 9 14 2
45 7 70 10 44 6 141 21 190 29 27 5 86 15 135 22 24 4 161 30 315 60 14 3 63
14 110 24 47 10 96 21 110 23 101 19 546 140 765 208 256 80 626 211 800 284
173 72 369 157 454 197 57 26 105 48 108 48 19 0 608 308 738 387 11 7 27 15
35 19 69 33 491 302 735 468 226 154 685 510 839 651 6 6 47 41 91 80 383 335
829 793 1120 1150 22 27 47 56 55 65 8 8 31 36 50 60 19 25 37 47 40 50 7 7
53 67 176 230 149 198 213 287 354 500 220 330 406 646 588 1000 46 91 89 174
95 185 6 11 12 22 12 25 1 3 23 50 49 105 27 55 66 141 88 190 22 50 51 114
64 143 86 189 267 677 372 1002 49 151 160 547 177 629 3 16 22 91 30 121 5
19 62 287 68 320 3 14 17 86 31 160 30 159 65 369 71 425 2 22 6 54 9 70 2 17
8 55 11 85 3 30 8 66 10 80 5 35 14 114 21 185 3 33 7 71 9 85 2 14 7 70 10
125 4 55 9 118 11 140 26 318 26 1125 -1 1430 -2 28 -7 86 -10 130 -3 44 -8
100 -11 125 -2 25 -6 65 -9 90 -17 164 -22 208 -41 340 -8 58 -17 123 -20 145
-2 22 -9 63 -14 90 -5 28 -11 64 -13 80 -3 17 -8 46 -11 65 -3 19 -8 46 -10
60 -3 14 -10 50 -16 80 -6 30 -13 69 -16 85 -4 24 -41 204 -59 285 -4 19 -75
310 -80 330 -16 59 -26 97 -30 110 -2 8 -4 15 -5 15 -1 0 -3 9 -5 20 -2 11
-11 43 -19 70 -8 28 -26 91 -41 140 -263 897 -685 1820 -1203 2635 -90 141
-258 390 -321 475 -56 76 -244 328 -258 345 -97 124 -317 387 -413 495 -280
316 -714 745 -950 941 -19 16 -42 36 -50 44 -9 8 -38 33 -64 55 -27 22 -54 45
-60 50 -68 64 -550 434 -696 534 -135 93 -422 282 -465 307 -20 11 -277 166
-305 184 -26 17 -132 75 -225 124 -49 27 -108 59 -130 71 -61 34 -266 137
-400 200 -173 82 -546 245 -560 245 -4 0 -25 9 -48 19 -109 50 -536 200 -782
276 -236 72 -559 160 -695 189 -14 3 -43 10 -65 15 -22 5 -51 12 -65 15 -14 2
-47 10 -75 16 -27 6 -61 14 -75 16 -14 3 -70 13 -125 24 -238 45 -275 51 -365
65 -52 7 -108 16 -125 19 -77 13 -427 53 -530 61 -38 3 -86 8 -105 10 -19 2
-84 7 -145 11 -60 3 -130 8 -155 11 -50 5 -937 13 -942 8z"/>
</g>
</svg>
